<?xml version="1.0" encoding="UTF-8"?>
<svg version="1.1" xmlns="http://www.w3.org/2000/svg" width="1024" height="1024">
<path d="M0 0 C337.92 0 675.84 0 1024 0 C1024 337.92 1024 675.84 1024 1024 C686.08 1024 348.16 1024 0 1024 C0 686.08 0 348.16 0 0 Z " fill="#FAFAFB" transform="translate(0,0)"/>
<path d="M0 0 C1.10239014 0.00845947 1.10239014 0.00845947 2.22705078 0.01708984 C16.69139839 0.33585465 28.12080667 5.67442456 38.8125 15.28515625 C40.8331698 17.47000548 42.2473051 19.71564857 43.6875 22.3125 C43.04683594 22.84617187 42.40617188 23.37984375 41.74609375 23.9296875 C29.11055998 34.81394759 20.86481698 48.45638478 19.43359375 65.30078125 C18.91175141 79.35685715 23.44697749 90.05239371 32.6015625 100.49609375 C37.13177361 105.26996163 42.11487212 108.85118546 47.6875 112.3125 C45.86745758 119.81401409 43.48373293 126.67759162 40.125 133.625 C39.68808838 134.53290283 39.25117676 135.44080566 38.80102539 136.3762207 C34.85786423 144.34797231 30.2593638 151.39909596 24.6875 158.3125 C23.93597656 159.25738281 23.18445313 160.20226562 22.41015625 161.17578125 C15.84949419 168.95864046 7.73894402 175.16429407 -2.55859375 176.6328125 C-10.30640092 177.1623803 -16.33611112 174.67270164 -23.37109375 171.84765625 C-39.0550558 165.58851269 -48.94593744 167.20599066 -64.2734375 173.53515625 C-73.75471799 177.32495175 -82.06147644 177.63723928 -91.62109375 173.76171875 C-96.60461956 171.07828177 -100.3875848 167.33985997 -104.3125 163.3125 C-105.05113281 162.59449219 -105.78976563 161.87648438 -106.55078125 161.13671875 C-122.34957948 144.88893158 -132.04404043 122.0857365 -137.3125 100.3125 C-137.47621094 99.64460449 -137.63992187 98.97670898 -137.80859375 98.28857422 C-143.34050534 74.74937602 -141.93417027 48.85281509 -129.2734375 27.79296875 C-120.65222119 14.3057185 -109.65051115 6.16099086 -94.34692383 1.74536133 C-80.65849838 -1.16710457 -67.00481623 1.94380797 -54.75 8.0625 C-47.97931103 11.15684066 -42.16546263 11.9210321 -34.97460938 9.53759766 C-30.63521118 7.91322844 -26.38814023 6.11547012 -22.14453125 4.2578125 C-14.88707897 1.19000501 -7.8559748 -0.06434803 0 0 Z " fill="#0D0D0E" transform="translate(266.3125,421.6875)"/>
<path d="M0 0 C10.31910163 5.36860879 15.40053521 13.14622924 19 24 C21.84481496 34.00554272 21.31117207 47.56390049 17 57 C16.47212891 58.16208984 16.47212891 58.16208984 15.93359375 59.34765625 C11.20465665 68.69628107 4.66028184 74.08410686 -5 78 C-11.96442173 80.21404152 -20.47924686 79.98828432 -27.1796875 77.05859375 C-31.01173677 74.83008441 -34.98851375 72.0229725 -37 68 C-37.33 80.54 -37.66 93.08 -38 106 C-44.27 106 -50.54 106 -57 106 C-57 70.69 -57 35.38 -57 -1 C-51.06 -1 -45.12 -1 -39 -1 C-38.67 1.97 -38.34 4.94 -38 8 C-37.34 7.0925 -36.68 6.185 -36 5.25 C-27.32342665 -5.23625865 -11.59608756 -5.04591659 0 0 Z " fill="#0B0B0C" transform="translate(806,473)"/>
<path d="M0 0 C8.54777605 6.25791311 13.22506034 14.85832524 15.7421875 25.0390625 C17.63568404 37.37547932 15.80120936 49.73959659 8.90625 60.2421875 C2.64650501 68.40049251 -4.82913338 73.20603037 -14.87109375 75.55859375 C-26.79309506 77.05983937 -37.90432826 75.39242459 -47.7734375 68.2734375 C-56.52190926 61.12152111 -61.44394675 51.8027822 -62.87109375 40.55859375 C-63.84717812 27.34145127 -61.46620593 15.90456211 -52.87109375 5.55859375 C-39.21515319 -9.27458306 -16.823642 -10.14233874 0 0 Z " fill="#0D0C0D" transform="translate(568.87109375,476.44140625)"/>
<path d="M0 0 C5.72284221 4.47770499 9.68686661 10.09883343 12 17 C12.495 21.455 12.495 21.455 13 26 C6.4 26 -0.2 26 -7 26 C-7.99 23.36 -8.98 20.72 -10 18 C-14.63442196 13.36557804 -19.2581266 11.76100352 -25.77490234 11.62011719 C-26.46793457 11.62172852 -27.1609668 11.62333984 -27.875 11.625 C-28.58736816 11.62661133 -29.29973633 11.62822266 -30.03369141 11.62988281 C-35.57475764 11.75990093 -38.80662542 12.40567893 -43 16 C-45.44223539 18.97315613 -45.36850451 22.260476 -45.2421875 26.04296875 C-44.86678273 29.07648148 -43.99386436 30.68454461 -42 33 C-34.53904273 38.28039096 -25.64146419 39.33736236 -16.84570312 41.1796875 C-4.73078285 43.89001663 4.90156787 48.46299883 12 59 C15.80618439 67.03527816 16.40872055 75.74923174 13.4375 84.125 C9.58456847 92.76696263 2.95548612 99.22683471 -5.55859375 103.19140625 C-18.65689067 108.07984736 -35.24994575 108.12893656 -48.3671875 103.265625 C-57.80092273 98.7307137 -63.485305 92.04914699 -67.30078125 82.3671875 C-68 80 -68 80 -68 76 C-64.93372294 75.78334451 -61.88272762 75.62540682 -58.8125 75.5 C-57.51602539 75.39945313 -57.51602539 75.39945313 -56.19335938 75.296875 C-53.5772319 75.21668718 -51.51239193 75.25008268 -49 76 C-47.24925884 77.89732855 -46.21174695 79.68935477 -45.12109375 82.0234375 C-43.38576014 85.08294554 -41.08031624 86.16238041 -37.86328125 87.37890625 C-34.19990091 88.17355492 -30.6094632 88.38938544 -26.875 88.4375 C-25.87182739 88.45296875 -25.87182739 88.45296875 -24.84838867 88.46875 C-19.8173333 88.37947434 -16.44436299 87.13525019 -12 85 C-11.01 84.67 -10.02 84.34 -9 84 C-6.2426178 79.50111324 -6.24085277 74.09363304 -7 69 C-9.02232 65.29241334 -10.22227734 63.68897483 -14.12353516 62.17700195 C-19.33275316 60.69173775 -24.54842426 59.37572309 -29.83911133 58.21337891 C-42.43142952 55.42895035 -54.3129693 52.07110251 -62.34765625 41.171875 C-66.81013902 33.81437652 -67.32271585 24.55381295 -65.3515625 16.27734375 C-62.34312618 7.95914588 -56.92565444 1.39359487 -49.203125 -2.96875 C-34.3954542 -9.90000016 -13.77735011 -9.24454228 0 0 Z " fill="#0D0D0D" transform="translate(437,446)"/>
<path d="M0 0 C8.9736066 6.02807161 13.21778134 14.63520545 16.16796875 24.76953125 C17.05191041 30.36416823 16.796875 36.08596294 16.796875 41.75 C-1.683125 42.08 -20.163125 42.41 -39.203125 42.75 C-36.49812088 52.98357175 -36.49812088 52.98357175 -29.703125 59.5625 C-23.08222832 61.80887566 -15.97606587 61.97301939 -9.578125 58.9375 C-6.77687382 57.39503891 -6.07575789 56.55894933 -4.203125 53.75 C-2.23193359 53.40942383 -2.23193359 53.40942383 0.1484375 53.45703125 C1.42460938 53.4715332 1.42460938 53.4715332 2.7265625 53.48632812 C3.61601563 53.51146484 4.50546875 53.53660156 5.421875 53.5625 C6.76765625 53.58280273 6.76765625 53.58280273 8.140625 53.60351562 C10.35997289 53.63893075 12.57812688 53.68831539 14.796875 53.75 C12.19190591 62.50873665 6.96779124 68.79611324 -0.83203125 73.53125 C-11.12962259 78.82424588 -21.92754983 79.19218746 -33.015625 76.125 C-38.61195059 74.20337013 -42.91259037 71.81419909 -47.203125 67.75 C-47.74453125 67.24855469 -48.2859375 66.74710938 -48.84375 66.23046875 C-57.47397599 57.27334026 -59.53100128 45.1621867 -59.421875 33.19921875 C-58.70020947 21.82009981 -54.77459855 10.5538789 -46.203125 2.75 C-32.18100793 -7.33201806 -15.03715731 -8.53172046 0 0 Z " fill="#0E0E0E" transform="translate(697.203125,475.25)"/>
<path d="M0 0 C6.27 0 12.54 0 19 0 C19.33 19.47 19.66 38.94 20 59 C26.97909223 51.298175 26.97909223 51.298175 33.625 43.375 C35.07151783 41.57378049 36.53124699 39.78313492 38 38 C38.47155518 37.30745117 38.94311035 36.61490234 39.42895508 35.90136719 C41.8415711 32.6353899 43.57621912 30.34693395 47.62304688 29.36083984 C50.59994843 29.21361375 53.46421987 29.29881514 56.4375 29.5 C57.96407227 29.55414063 57.96407227 29.55414063 59.52148438 29.609375 C62.01828272 29.70315146 64.50712488 29.83416975 67 30 C63.27215149 34.39663735 59.47631344 38.70558271 55.5625 42.9375 C49.5326771 49.48258753 43.66325867 56.13544404 38 63 C39.32373984 65.79275877 40.80390274 68.26493873 42.6171875 70.765625 C43.13611572 71.48322998 43.65504395 72.20083496 44.18969727 72.94018555 C44.74584717 73.70242432 45.30199707 74.46466309 45.875 75.25 C46.44855225 76.04124268 47.02210449 76.83248535 47.61303711 77.64770508 C52.00979569 83.69422725 56.48141888 89.6832142 61.04052734 95.60839844 C64.06383266 99.58116284 66.6081328 103.61584813 69 108 C50.68201214 110.18700721 50.68201214 110.18700721 45.20214844 106.93212891 C42.12115468 103.88666024 40.26405521 100.07265093 38.28564453 96.26074219 C35.76241576 91.82376945 32.52911943 87.86328042 29.4375 83.8125 C28.22230754 82.19817858 27.01227796 80.57995167 25.80859375 78.95703125 C25.03213501 77.92026245 25.03213501 77.92026245 24.23999023 76.86254883 C23 75 23 75 22 72 C21.01 72 20.02 72 19 72 C19 83.88 19 95.76 19 108 C12.73 108 6.46 108 0 108 C0 72.36 0 36.72 0 0 Z " fill="#0C0C0C" transform="translate(835,442)"/>
<path d="M0 0 C6.27 0 12.54 0 19 0 C19 6.6 19 13.2 19 20 C24.94 20 30.88 20 37 20 C37 24.62 37 29.24 37 34 C31.06 34 25.12 34 19 34 C19.06893036 39.89030857 19.15692397 45.77991092 19.26245117 51.66967773 C19.29566727 53.67252764 19.32370952 55.6754704 19.34643555 57.6784668 C19.38004234 60.56078594 19.43236148 63.44225668 19.48828125 66.32421875 C19.49467117 67.21711105 19.5010611 68.11000336 19.50764465 69.029953 C19.6201206 73.8058745 19.86101012 77.14228968 23 81 C25.56893838 82.28446919 27.76576337 82.32977144 30.625 82.5625 C32.39875 82.706875 34.1725 82.85125 36 83 C36 87.95 36 92.9 36 98 C32.49867886 98.13582711 29.00269883 98.2345137 25.5 98.3125 C24.51773438 98.35439453 23.53546875 98.39628906 22.5234375 98.43945312 C15.7170917 98.55289222 11.22213088 97.49319834 6 93 C-0.13572836 85.73400589 -0.29448905 77.43538265 -0.1953125 68.375 C-0.1924826 67.38749756 -0.18965271 66.39999512 -0.18673706 65.38256836 C-0.1756182 62.25491785 -0.15052916 59.12756272 -0.125 56 C-0.11495948 53.86849374 -0.10583551 51.73698296 -0.09765625 49.60546875 C-0.07570607 44.4035335 -0.04123391 39.20181669 0 34 C-3.63 34 -7.26 34 -11 34 C-11 29.38 -11 24.76 -11 20 C-7.37 20 -3.74 20 0 20 C0 13.4 0 6.8 0 0 Z " fill="#0C0C0C" transform="translate(465,452)"/>
<path d="M0 0 C0 5.94 0 11.88 0 18 C-1.65 17.9175 -3.3 17.835 -5 17.75 C-10.51243478 17.77834157 -14.66247835 18.459166 -19 22 C-23.24724504 27.16871716 -25.07730705 32.01996645 -25.20532227 38.67675781 C-25.22526749 39.59741028 -25.24521271 40.51806274 -25.26576233 41.46661377 C-25.29083107 42.94493683 -25.29083107 42.94493683 -25.31640625 44.453125 C-25.33718735 45.46848328 -25.35796844 46.48384155 -25.37937927 47.52996826 C-25.44470597 50.76991073 -25.50368137 54.00993348 -25.5625 57.25 C-25.60570126 59.44792493 -25.64931607 61.64584178 -25.69335938 63.84375 C-25.80037012 69.22908461 -25.90168522 74.6144999 -26 80 C-32.27 80 -38.54 80 -45 80 C-45 54.26 -45 28.52 -45 2 C-38.73 2 -32.46 2 -26 2 C-25.67 5.3 -25.34 8.6 -25 12 C-24.443125 11.0925 -23.88625 10.185 -23.3125 9.25 C-17.06148815 0.46479415 -10.14130192 -0.27408924 0 0 Z " fill="#0B0B0B" transform="translate(638,470)"/>
<path d="M0 0 C1.57515373 1.57515373 1.20813951 3.12528919 1.25 5.3125 C1.03327393 20.54834251 -5.56827864 33.70076267 -16.1328125 44.36328125 C-25.02612038 52.54173196 -35.89252957 56.90390896 -48 57 C-49.64498952 55.35501048 -49.25019886 53.51907324 -49.3125 51.25 C-49.14248191 36.68511675 -42.13733214 24.69479576 -32.41796875 14.32421875 C-23.70041236 5.94466132 -12.37938379 -0.55019484 0 0 Z " fill="#0D0D0E" transform="translate(268,366)"/>
<path d="M0 0 C5.8723068 3.43474549 9.72660543 8.21837282 11.84765625 14.70703125 C13.62134833 23.21777223 12.68698145 32.52774874 8.5625 40.1875 C4.38702514 45.29085816 0.68201576 48.41731955 -5.984375 49.2109375 C-11.55004462 49.44136331 -15.34866011 48.82671385 -19.9296875 45.5625 C-25.37540885 40.52823315 -27.43336833 34.9840581 -27.890625 27.703125 C-28.00567027 19.07472951 -27.69872819 11.68165365 -22.4375 4.5625 C-15.82530946 -1.74913642 -8.45302534 -2.43561747 0 0 Z " fill="#F9F9F9" transform="translate(794.6875,487.0625)"/>
<path d="M0 0 C5.50848932 3.23225407 8.30644961 8.05350453 9.890625 14.109375 C10.67510815 23.34073486 11.12891307 33.05047027 5.890625 41.109375 C2.37985963 45.14915981 -1.81226092 47.69723574 -7.140625 48.36328125 C-12.9778424 48.67313354 -17.30050036 47.44279946 -22.109375 44.109375 C-28.32760544 38.05920484 -29.45089734 31.07211128 -29.609375 22.734375 C-29.58624237 14.19288277 -27.78784838 7.78784838 -21.609375 1.609375 C-14.51319374 -2.64833376 -7.65093766 -3.19291099 0 0 Z " fill="#F9F9FA" transform="translate(555.109375,487.890625)"/>
<path d="M0 0 C6.27 0 12.54 0 19 0 C19 26.07 19 52.14 19 79 C12.73 79 6.46 79 0 79 C0 52.93 0 26.86 0 0 Z " fill="#0D0D0D" transform="translate(340,471)"/>
<path d="M0 0 C4.46493597 2.55613435 7.43109598 5.39537329 9.7265625 10.078125 C10.2215625 14.038125 10.2215625 14.038125 10.7265625 18.078125 C-1.1534375 18.078125 -13.0334375 18.078125 -25.2734375 18.078125 C-23.92270816 7.27229032 -23.92270816 7.27229032 -18.58203125 2.59765625 C-12.81676333 -1.56032485 -6.70709606 -2.71971593 0 0 Z " fill="#F9F9F9" transform="translate(683.2734375,485.921875)"/>
<path d="M0 0 C3.4584652 2.01743803 5.88383392 4.09341872 7 8 C6.80849752 13.26631826 5.79603459 16.30941082 2 20 C-2.16420421 22.47601332 -5.36865432 22.15783642 -10 21 C-13.33793291 18.84888768 -15.88909835 16.88815577 -17 13 C-16.80743088 7.70434916 -15.69046589 4.80229819 -12 1 C-8.29778834 -0.85110583 -4.04093083 -0.46454795 0 0 Z " fill="#0E0E0E" transform="translate(354,438)"/>
<path d="M0 0 C2.92837797 2.45027545 4.56680768 4.19920878 5.47265625 7.96484375 C5.76995587 11.93646173 5.05277801 13.90636159 3.0625 17.4375 C-0.39177222 20.32780941 -2.36924321 21.02848135 -6.78125 21.234375 C-10.39730218 20.85239766 -12.37405648 19.43380131 -15 17 C-16.92693706 13.90014474 -17.00600905 12.16825346 -16.875 8.5 C-15.91631176 4.66524706 -14.7773322 2.7773322 -12 0 C-7.79884353 -1.40038549 -4.25759558 -1.19302153 0 0 Z " fill="#0C0C0C" transform="translate(734,531)"/>
<path d="M0 0 C6.27 0 12.54 0 19 0 C19 5.28 19 10.56 19 16 C18.67 16 18.34 16 18 16 C17.505 9.565 17.505 9.565 17 3 C14.6796875 2.7525 14.6796875 2.7525 12.3125 2.5 C11.44238281 2.4071875 10.57226562 2.314375 9.67578125 2.21875 C7.10276661 2.00840136 4.58015636 1.96280856 2 2 C2.03480469 3.27617187 2.06960938 4.55234375 2.10546875 5.8671875 C2.13360231 7.53644521 2.16090293 9.2057171 2.1875 10.875 C2.22520508 12.13763672 2.22520508 12.13763672 2.26367188 13.42578125 C2.27817383 14.63427734 2.27817383 14.63427734 2.29296875 15.8671875 C2.31653442 16.98262939 2.31653442 16.98262939 2.34057617 18.12060547 C2.22818604 18.74080566 2.1157959 19.36100586 2 20 C-2.2024454 22.80163026 -5.00104935 22.14489712 -10 22 C-10 25.3 -10 28.6 -10 32 C-7.4609375 31.93489583 -4.921875 31.86979167 -2.3828125 31.8046875 C0 32 0 32 2 34 C2.27174377 36.0223999 2.27174377 36.0223999 2.30297852 38.53808594 C2.31962051 39.47956482 2.33626251 40.4210437 2.35340881 41.39105225 C2.36182297 42.41184875 2.37023712 43.43264526 2.37890625 44.484375 C2.39590073 45.53272522 2.4128952 46.58107544 2.43040466 47.66119385 C2.48366927 51.02406735 2.52385781 54.38692915 2.5625 57.75 C2.6065115 61.09872204 2.65335891 64.44735095 2.70530701 67.79595947 C2.73709761 69.8816227 2.76403842 71.96736692 2.78553772 74.05316162 C2.85272829 78.80530782 3.02035445 83.32731281 4 88 C3.34 87.67 2.68 87.34 2 87 C-0.05298893 80.73023127 -0.26707347 74.93080209 -0.1953125 68.375 C-0.1924826 67.38749756 -0.18965271 66.39999512 -0.18673706 65.38256836 C-0.1756182 62.25491785 -0.15052916 59.12756272 -0.125 56 C-0.11495948 53.86849374 -0.10583551 51.73698296 -0.09765625 49.60546875 C-0.07570607 44.4035335 -0.04123391 39.20181669 0 34 C-3.63 34 -7.26 34 -11 34 C-11 29.38 -11 24.76 -11 20 C-7.37 20 -3.74 20 0 20 C0 13.4 0 6.8 0 0 Z " fill="#010101" transform="translate(465,452)"/>
<path d="M0 0 C0.33 0 0.66 0 1 0 C1 1.65 1 3.3 1 5 C-4.94 5 -10.88 5 -17 5 C-17 16.22 -17 27.44 -17 39 C-17.33 39 -17.66 39 -18 39 C-18.1979067 34.47955967 -18.3814754 29.95864537 -18.5625 25.4375 C-18.61857422 24.16068359 -18.67464844 22.88386719 -18.73242188 21.56835938 C-18.78076172 20.32763672 -18.82910156 19.08691406 -18.87890625 17.80859375 C-18.94960327 16.10401001 -18.94960327 16.10401001 -19.02172852 14.36499023 C-18.96100482 4.96100482 -18.96100482 4.96100482 -17 3 C-14.30345146 2.92680379 -11.63308542 2.90757463 -8.9375 2.9375 C-8.17888672 2.94201172 -7.42027344 2.94652344 -6.63867188 2.95117188 C-4.75908129 2.9629932 -2.87953101 2.98092922 -1 3 C-0.67 2.01 -0.34 1.02 0 0 Z " fill="#010101" transform="translate(501,481)"/>
<path d="M0 0 C6.27 0 12.54 0 19 0 C19.33 1.65 19.66 3.3 20 5 C19.34 4.67 18.68 4.34 18 4 C18 3.34 18 2.68 18 2 C12.72 2 7.44 2 2 2 C1.67 3.32 1.34 4.64 1 6 C0.67 4.02 0.34 2.04 0 0 Z " fill="#040304" transform="translate(369,522)"/>
<path d="M0 0 C5.61 0 11.22 0 17 0 C16.34 1.65 15.68 3.3 15 5 C14.34 4.67 13.68 4.34 13 4 C13.33 3.34 13.66 2.68 14 2 C9.05 2 4.1 2 -1 2 C-0.67 1.34 -0.34 0.68 0 0 Z " fill="#020202" transform="translate(695,529)"/>
<path d="M0 0 C1.32 1.32 2.64 2.64 4 4 C3.33613281 4.58007812 2.67226563 5.16015625 1.98828125 5.7578125 C-2.73205385 9.93375859 -7.15424345 14.00051649 -11 19 C-11 15.30165104 -10.18635778 14.72918572 -7.75 12.0625 C-7.11449219 11.35738281 -6.47898437 10.65226562 -5.82421875 9.92578125 C-4.45648525 8.48189985 -3.0239072 7.09899126 -1.5625 5.75 C0.44401051 3.89371498 0.44401051 3.89371498 0 0 Z " fill="#060606" transform="translate(306,440)"/>
<path d="M0 0 C0.66 0.33 1.32 0.66 2 1 C0.02 3.31 -1.96 5.62 -4 8 C-4.66 7.67 -5.32 7.34 -6 7 C-4.02 4.69 -2.04 2.38 0 0 Z " fill="#040404" transform="translate(519,479)"/>
</svg>
