<?xml version="1.0" encoding="UTF-8"?>
<svg version="1.1" xmlns="http://www.w3.org/2000/svg" width="512" height="512">
<path d="M0 0 C0.90475067 0.00425995 1.80950134 0.0085199 2.7416687 0.01290894 C16.27301947 0.10163077 29.08271073 0.75352484 41.875 5.5625 C42.59816406 5.8301416 43.32132812 6.0977832 44.06640625 6.37353516 C53.18202029 9.85304168 61.58100907 14.4311488 69.875 19.5625 C70.80957031 20.08328125 71.74414062 20.6040625 72.70703125 21.140625 C73.42246094 21.60984375 74.13789063 22.0790625 74.875 22.5625 C74.875 23.2225 74.875 23.8825 74.875 24.5625 C75.62136719 24.82135986 76.36773437 25.08021973 77.13671875 25.34692383 C79.96249195 26.60133938 81.52211457 27.83579132 83.6875 30.01171875 C84.37070312 30.69556641 85.05390625 31.37941406 85.7578125 32.08398438 C86.80582031 33.15616211 86.80582031 33.15616211 87.875 34.25 C88.57367188 34.94544922 89.27234375 35.64089844 89.9921875 36.35742188 C94.10145605 40.50933378 97.61982065 44.71151984 100.875 49.5625 C99.27294982 53.98921762 95.89062588 56.40696104 92.375 59.3125 C91.78074219 59.81910156 91.18648438 60.32570312 90.57421875 60.84765625 C86.13843497 64.5625 86.13843497 64.5625 83.875 64.5625 C83.5346875 65.3978125 83.5346875 65.3978125 83.1875 66.25 C81.49949964 69.22409588 79.40823483 71.28258865 76.875 73.5625 C76.215 73.5625 75.555 73.5625 74.875 73.5625 C74.62878906 74.11550781 74.38257813 74.66851562 74.12890625 75.23828125 C72.63058432 78.01554465 70.78391477 80.2848623 68.8125 82.75 C63.12331222 90.1215935 58.8965311 98.18934431 54.875 106.5625 C54.441875 107.46097656 54.00875 108.35945313 53.5625 109.28515625 C42.73393145 135.29910022 45.21724731 166.8379185 55.48046875 192.48046875 C57.56856685 197.09534103 60.13617829 201.31208817 62.875 205.5625 C63.35839844 206.3875 63.84179688 207.2125 64.33984375 208.0625 C66.3822756 211.38859767 68.76359118 214.3692018 71.18359375 217.42578125 C72.4403397 219.01340257 73.66615243 220.62561107 74.875 222.25 C77.18159787 224.91700379 79.73094329 227.03813552 82.484375 229.23046875 C82.94328125 229.67003906 83.4021875 230.10960937 83.875 230.5625 C83.875 231.2225 83.875 231.8825 83.875 232.5625 C84.45121094 232.82546875 85.02742188 233.0884375 85.62109375 233.359375 C87.9992709 234.62883525 89.86488002 236.09241912 91.9375 237.8125 C95.35011115 240.52566688 98.77373148 242.70742439 102.625 244.75 C110.78223774 249.10891666 110.78223774 249.10891666 112.875 251.5625 C113.30227313 257.33068719 112.5985524 261.23516889 110.3125 266.625 C110.04219971 267.26711426 109.77189941 267.90922852 109.4934082 268.57080078 C108.63949186 270.5768808 107.76157317 272.57065905 106.875 274.5625 C106.60236328 275.1807666 106.32972656 275.7990332 106.04882812 276.43603516 C100.39898458 289.15495752 94.30040866 302.03247435 86.28125 313.4375 C84.00925946 316.87073015 82.15901503 320.52564449 80.26953125 324.1796875 C78.875 326.5625 78.875 326.5625 77.44921875 327.9453125 C75.51904042 329.9281756 74.37640235 332.18441767 73.04443359 334.59130859 C70.88533952 338.23066675 68.27313376 341.53182092 65.6875 344.875 C65.11451172 345.61975586 64.54152344 346.36451172 63.95117188 347.13183594 C59.50693394 352.85758706 54.88512215 358.31934891 49.875 363.5625 C48.6065625 364.8928125 48.6065625 364.8928125 47.3125 366.25 C46.508125 367.013125 45.70375 367.77625 44.875 368.5625 C44.30523437 369.10390625 43.73546875 369.6453125 43.1484375 370.203125 C27.88082079 384.19337138 11.79020459 388.3804516 -8.421875 387.9921875 C-17.71480206 387.57215346 -25.56266201 385.00594491 -34.125 381.5625 C-37.43723369 380.25642721 -40.75133594 378.9554855 -44.06835938 377.66162109 C-46.28767682 376.78911482 -48.50052287 375.89988339 -50.70507812 374.99072266 C-61.83952893 370.52270302 -72.69056349 369.2131843 -84.625 369.3125 C-85.55441406 369.30476563 -86.48382813 369.29703125 -87.44140625 369.2890625 C-100.42282774 369.3247748 -111.42971924 372.04459547 -123.4375 376.875 C-124.73203685 377.37722363 -126.02754229 377.87695733 -127.32397461 378.37426758 C-132.42935076 380.3333255 -137.52350636 382.31151122 -142.578125 384.3984375 C-151.15219443 387.60907389 -159.20390993 388.05750448 -168.3125 388.1875 C-169.47724854 388.21094482 -170.64199707 388.23438965 -171.84204102 388.25854492 C-184.92063528 388.13733545 -194.8918295 383.4052967 -205.125 375.5625 C-206.115 374.9025 -207.105 374.2425 -208.125 373.5625 C-208.125 372.9025 -208.125 372.2425 -208.125 371.5625 C-209.2078125 371.253125 -209.2078125 371.253125 -210.3125 370.9375 C-213.3261603 369.46415496 -214.83627352 367.76548534 -216.875 365.140625 C-219.39722607 361.95631459 -222.42542573 359.2243581 -225.37109375 356.4375 C-228.78326564 352.87528935 -231.7182284 349.0578327 -234.6875 345.125 C-235.53344727 344.01801758 -235.53344727 344.01801758 -236.39648438 342.88867188 C-239.45354667 338.86622149 -242.3752553 334.80400903 -245.125 330.5625 C-245.52871826 329.94270264 -245.93243652 329.32290527 -246.34838867 328.68432617 C-249.17400789 324.34221682 -251.97982596 319.98727831 -254.78710938 315.63330078 C-255.96276053 313.81361591 -257.14408786 311.99782635 -258.328125 310.18359375 C-259.24851562 308.76240234 -259.24851562 308.76240234 -260.1875 307.3125 C-260.71472656 306.50296875 -261.24195313 305.6934375 -261.78515625 304.859375 C-263.17434557 302.47790759 -264.11673877 300.12763518 -265.125 297.5625 C-266.39310707 294.87351933 -267.72710877 292.21858091 -269.0625 289.5625 C-269.40990234 288.86382812 -269.75730469 288.16515625 -270.11523438 287.4453125 C-271.56021313 284.56079747 -273.00731878 281.75253338 -274.70703125 279.0078125 C-276.48166524 275.94742441 -277.67888188 272.75296161 -278.875 269.4375 C-279.40327674 267.98814667 -279.9319377 266.53893333 -280.4609375 265.08984375 C-280.73389648 264.33944824 -281.00685547 263.58905273 -281.28808594 262.81591797 C-282.09018956 260.65622824 -282.9317444 258.51718795 -283.7890625 256.37890625 C-287.66434082 246.56650995 -290.63801749 236.57282998 -293.3125 226.375 C-293.63331543 225.17222412 -293.95413086 223.96944824 -294.28466797 222.73022461 C-295.31475043 218.68886596 -296.25082276 214.64001237 -297.125 210.5625 C-297.30507599 209.73089355 -297.48515198 208.89928711 -297.67068481 208.04248047 C-301.11159712 191.60233775 -301.78680471 175.34912261 -301.70141602 158.61669922 C-301.68763059 155.8264971 -301.69468785 153.03766103 -301.72192383 150.24755859 C-301.94401251 127.42506005 -299.05382707 107.04962136 -291.125 85.5625 C-290.66867187 84.25345703 -290.66867187 84.25345703 -290.203125 82.91796875 C-284.41017482 67.19061716 -273.45316449 49.9841818 -261.125 38.5625 C-260.465 38.5625 -259.805 38.5625 -259.125 38.5625 C-258.465 37.2425 -257.805 35.9225 -257.125 34.5625 C-256.465 34.5625 -255.805 34.5625 -255.125 34.5625 C-254.86936279 33.9634082 -254.61372559 33.36431641 -254.3503418 32.74707031 C-252.99097881 30.32356363 -251.75236396 29.2379968 -249.51953125 27.609375 C-248.42668823 26.80983398 -248.42668823 26.80983398 -247.31176758 25.99414062 C-246.52825928 25.43919922 -245.74475098 24.88425781 -244.9375 24.3125 C-244.12885498 23.73693359 -243.32020996 23.16136719 -242.48706055 22.56835938 C-216.07410649 4.08681069 -185.46832408 -2.51697966 -153.5625 2.625 C-146.48615366 4.21977407 -139.88896287 6.77758837 -133.1953125 9.51953125 C-127.20903172 11.9636269 -121.14160513 14.17405996 -115.0625 16.375 C-113.49254272 16.95241943 -113.49254272 16.95241943 -111.89086914 17.54150391 C-91.15980104 25.03633992 -75.75744673 20.27279849 -55.9375 12.10546875 C-51.87172992 10.43998533 -47.76173828 8.91686649 -43.625 7.4375 C-42.68430664 7.09344116 -42.68430664 7.09344116 -41.72460938 6.74243164 C-39.53795299 5.96858603 -37.33676717 5.2615526 -35.125 4.5625 C-34.08102051 4.21614502 -33.03704102 3.86979004 -31.96142578 3.51293945 C-21.27527964 0.27153776 -11.11625924 -0.11171801 0 0 Z " fill="#FFFFFF" transform="translate(350.125,123.4375)"/>
<path d="M0 0 C1.03253906 0.01353516 1.03253906 0.01353516 2.0859375 0.02734375 C3.76577838 0.05067487 5.44543746 0.08653674 7.125 0.125 C8.35433812 32.18613829 1.03221748 60.82455709 -20.875 85.125 C-21.535 85.125 -22.195 85.125 -22.875 85.125 C-23.10574219 85.6921875 -23.33648437 86.259375 -23.57421875 86.84375 C-25.20835994 89.70963124 -27.20809884 91.45413002 -29.6875 93.625 C-30.53957031 94.3778125 -31.39164062 95.130625 -32.26953125 95.90625 C-36.92169677 99.86791419 -41.49471333 103.21304781 -46.875 106.125 C-47.47441406 106.455 -48.07382812 106.785 -48.69140625 107.125 C-64.21154136 115.56057237 -79.15123043 119.45801446 -96.875 119.125 C-98.13494097 85.31658387 -87.2325204 57.39309675 -64.4609375 32.484375 C-58.75413805 26.57829049 -52.71820618 21.654761 -45.875 17.125 C-45.32215332 16.75487793 -44.76930664 16.38475586 -44.19970703 16.00341797 C-34.57499143 9.63416018 -24.85371413 5.58777953 -13.875 2.125 C-12.88371094 1.74472656 -11.89242187 1.36445312 -10.87109375 0.97265625 C-7.20756637 -0.06383063 -3.76878438 -0.09494999 0 0 Z " fill="#FFFFFF" transform="translate(350.875,0.875)"/>
</svg>
